# xmcd CD database file
#
# Track frame offsets:
#	150
#	21471
#	47558
#	87468
#	114393
#	146226
#	162666
#	190926
#	235490
#	273299
#
# Disc length: 4363 seconds
#
# Revision: 0
# Processed by: cddbd v1.5.1PL0 Copyright (c) Steve Scherf et al.
# Submitted via: CDex 1.51
#
DISCID=9211090a
DTITLE=Michel Petrucciani - The Very Best of Michel Petrucciani
DYEAR=2005
DGENRE=Jazz
TTITLE0=September Second
TTITLE1=Looking Up
TTITLE2=Round Midnight
TTITLE3=In A Sentimental Mood
TTITLE4=Our Tune
TTITLE5=My Bebop Tune
TTITLE6=It's Dance
TTITLE7=Say It Again And Again
TTITLE8=Morning Blues
TTITLE9=100 Hearts
EXTD=YEAR: 2005
EXTT0=
EXTT1=
EXTT2=
EXTT3=
EXTT4=
EXTT5=
EXTT6=
EXTT7=
EXTT8=
EXTT9=
PLAYORDER=
